# xmcd
#
# Track frame offsets:
#	182
#	18237
#	34497
#	52035
#	67047
#	80812
#	101690
#	117267
#	136157
#	152200
#
# Disc length: 2275 seconds
#
# Revision: 0
# Processed by: cddbd v1.5.1PL0 Copyright (c) Steve Scherf et al.
# Submitted via: EasyCDDAExtractor 8.0.2.1
#
DISCID=8b08e10a
DTITLE=Les Musclés - Vive la France, vive l'amour et vive nous
DYEAR=1900
DGENRE=
TTITLE0=Vive la France
TTITLE1=Dans le coeur d'une fille
TTITLE2=Le plus grand orchestre de l'univers
TTITLE3=On va faire lalalaitou ce soir
TTITLE4=Une brune au clair de lune
TTITLE5=La musclada
TTITLE6=C'est pas ma p'tite soeut
TTITLE7=Merguez party
TTITLE8=Y'a pas d'raison
TTITLE9=Histoire Banale
EXTD=
EXTT0=
EXTT1=
EXTT2=
EXTT3=
EXTT4=
EXTT5=
EXTT6=
EXTT7=
EXTT8=
EXTT9=
PLAYORDER=
